<?xml version="1.0" encoding="utf-8"?>
<!-- Generator: Adobe Illustrator 24.2.3, SVG Export Plug-In . SVG Version: 6.00 Build 0)  -->
<svg version="1.1" xmlns="http://www.w3.org/2000/svg" xmlns:xlink="http://www.w3.org/1999/xlink" x="0px" y="0px"
	 viewBox="0 0 342 472" style="enable-background:new 0 0 342 472;" xml:space="preserve">
<style type="text/css">
	.st0{display:none;}
	.st1{display:inline;}
	.st2{fill:url(#SVGID_1_);}
	.st3{fill:url(#SVGID_2_);}
	.st4{fill:#FFFFFF;}
</style>
<g id="Layer_2" class="st0">
</g>
<g id="Layer_1">
	<g class="st0">
		<path class="st1" d="M263.2,109.1c-26.9-15.5-51.7-22.4-74.4-20.7c-22.7,1.7-39.2,11.4-49.3,29c-9.1,15.7-12.1,30.4-9.2,44
			c2.9,13.6,13.3,28.7,31,45.2c9.4,8.6,23.2,20.4,41.1,35.2c9.4,7.8,17.9,15.1,25.7,22l52.4-30.5c1.4,30.9-12.5,45.5-29.8,51.8
			c21.6,22.4,35,44.6,40.3,66.6c0.6,2.4,1,4.9,1.4,7.3c12.9-22.2,21.9-48.9,23.8-80.1c2.3-38,2-70-2.4-96.5
			c-5-30.7-23.3-57.6-50.2-73.2C263.4,109.2,263.3,109.2,263.2,109.1z"/>
		<path class="st1" d="M113.5,423c14,8.1,29.8,12.9,46,13.1c2.4,0,4.8,0,7.1-0.2c24-1.7,41.7-12.2,52.9-31.6
			c9.7-16.7,12.7-31.4,9.1-44.1c-3.6-12.7-12.5-26-26.7-40.1c-10.7-10.7-22.8-21.4-36.3-32.1c-13.5-10.7-27.6-22.6-42.2-35.5
			C94,226,76.2,199.5,70,173.1c-5.7-24.4-2.1-49.2,10.9-74.4c-49.8,26.4-60.8,84.3-55,180.4C30.3,350.8,72,398.9,113.5,423z
			 M61.6,233.4l89.8,52.2C151.3,285.6,57.9,311.1,61.6,233.4z"/>
	</g>
	<g>
		<linearGradient id="SVGID_1_" gradientUnits="userSpaceOnUse" x1="289.748" y1="15.2844" x2="66.0884" y2="426.6036">
			<stop  offset="0" style="stop-color:#FBE456"/>
			<stop  offset="1" style="stop-color:#E09B29"/>
		</linearGradient>
		<path class="st2" d="M299.6,88.9c-8.8-8.3-13.8-19.9-13.8-32.1V41.3c0,0,0,0,0,0c-5.4-2.3-9.5-6.7-11.4-12.2l-3.9-11.6
			c-6.5,8.2-17.2,11.8-27.3,9.2c-2.6-0.7-5.3-1.3-7.9-1.9C227.6,23,221.1,18,217.5,11L212,0l0,0c-6.4,11.3-18.6,18.1-31.6,17.7
			c-6.2-0.2-12.4-0.2-18.6,0c-13,0.4-25.2-6.3-31.6-17.7l-5.6,11c-3.5,7-10,12-17.7,13.8c-2.6,0.6-5.3,1.2-7.9,1.9
			c-10.1,2.6-20.9-0.9-27.3-9.2L67.7,29c-1.9,5.5-6,10-11.3,12.3l-0.1,0v15.5c0,12.1-5,23.7-13.8,32.1
			c-38.1,35.8-46.5,98.9-40.8,194C9.2,408.6,114.9,472,171,472s161.8-63.4,169.4-189.1C346.1,187.7,337.7,124.6,299.6,88.9z
			 M258.6,60.5c1.7,0.3,3.4,0.6,5.1,0.9c0,1,0,2,0,3.1c0,0.3,0.1,0.6,0.3,0.9c0.2,0.3,0.5,0.5,0.8,0.6c2,0.7,4,1.5,6,2.2
			c0.3,0.1,0.6,0.1,0.8,0c0.2-0.1,0.3-0.4,0.3-0.7c0-1.4,0-2.8,0-4.2c0-0.3-0.1-0.6-0.3-0.9c-0.2-0.3-0.5-0.5-0.8-0.8
			c-0.8-0.5-1.5-1-2.1-1.4c-0.6-0.4-1.2-0.8-1.7-1.1c-0.6-0.4-1.1-0.7-1.7-1.1c-0.6-0.4-1.3-0.8-2.1-1.4c-0.6-0.4-1.2-0.9-1.8-1.3
			c-0.6-0.5-1-0.9-1.5-1.5c-0.4-0.5-0.7-1.1-1-1.6c-0.2-0.6-0.4-1.2-0.4-1.9c0-2,0-4,0-6c0-0.7,0.1-1.3,0.4-1.8
			c0.2-0.5,0.6-0.9,1-1.2c0.4-0.3,0.9-0.5,1.5-0.5c0.6-0.1,1.2,0,1.8,0.3c3,1.1,6,2.2,9,3.4c0.6,0.3,1.3,0.6,1.8,1.1
			c0.6,0.5,1.1,1,1.5,1.6c0.4,0.6,0.7,1.3,1,1.9c0.2,0.7,0.4,1.4,0.4,2c0,1.1,0,2.3,0,3.4c-1.7-0.4-3.4-0.8-5.1-1.2c0-1,0-2.1,0-3.1
			c0-0.3-0.1-0.6-0.3-0.9c-0.2-0.3-0.5-0.5-0.8-0.6c-1.9-0.7-3.9-1.5-5.8-2.2c-0.3-0.1-0.6-0.1-0.8,0c-0.2,0.1-0.3,0.4-0.3,0.7
			c0,1.2,0,2.4,0,3.6c0,0.3,0.1,0.6,0.3,0.9c0.2,0.3,0.5,0.5,0.8,0.7c1.2,0.8,2.5,1.6,3.6,2.4c1.2,0.8,2.5,1.7,4.1,2.8
			c1.2,0.8,2.2,1.8,3.1,2.9c0.9,1.1,1.3,2.3,1.3,3.6c0,2.2,0,4.3,0,6.5c0,0.7-0.1,1.2-0.4,1.7c-0.2,0.5-0.6,0.9-1,1.1
			c-0.4,0.3-0.9,0.4-1.5,0.4c-0.6,0-1.2-0.1-1.8-0.3c-3-1.2-6.1-2.3-9.2-3.4c-0.7-0.2-1.3-0.6-1.8-1c-0.6-0.4-1.1-1-1.5-1.5
			c-0.4-0.6-0.8-1.2-1-1.9c-0.2-0.7-0.4-1.3-0.4-2C258.6,62.7,258.6,61.6,258.6,60.5z M231.6,32c1.8,0.4,3.5,0.8,5.2,1.2
			c0,7.7,0,15.5,0,23.2c0,0.3,0.1,0.6,0.3,0.9c0.2,0.3,0.5,0.5,0.8,0.5c2.2,0.5,4.4,1.1,6.5,1.7c0.3,0.1,0.6,0.1,0.8-0.1
			c0.2-0.2,0.3-0.4,0.3-0.7c0-7.7,0-15.5,0-23.2c1.7,0.5,3.5,1,5.2,1.5c0,8.1,0,16.2,0,24.3c0,0.7-0.1,1.3-0.4,1.8
			c-0.2,0.5-0.6,0.9-1,1.2c-0.4,0.3-0.9,0.5-1.5,0.6c-0.6,0.1-1.2,0-1.9-0.2c-3.2-0.9-6.5-1.8-9.8-2.6c-0.7-0.2-1.3-0.4-1.9-0.8
			c-0.6-0.4-1.1-0.8-1.5-1.4c-0.4-0.5-0.8-1.1-1-1.8c-0.2-0.6-0.4-1.3-0.4-2C231.6,48.2,231.6,40.1,231.6,32z M197.5,26.6
			c1.7,0.2,3.4,0.3,5.1,0.5c2.6,6.3,5.3,12.5,7.9,18.9c2.6-5.6,5.3-11.1,7.9-16.6c1.7,0.3,3.4,0.6,5.1,0.9c0,9.7,0,19.4,0,29.1
			c-1.7-0.3-3.4-0.6-5.1-0.9c0-5.8,0-11.6,0-17.4c-1.9,3.8-3.7,7.6-5.6,11.5c-1.5-0.2-3-0.4-4.5-0.7c-1.9-4.4-3.8-8.8-5.6-13.1
			c0,5.8,0,11.6,0,17.4c-1.7-0.2-3.4-0.4-5.1-0.5C197.5,46,197.5,36.3,197.5,26.6z M169.9,30.1c0-0.7,0.1-1.3,0.4-1.9
			c0.3-0.6,0.6-1.1,1-1.5c0.4-0.4,0.9-0.8,1.5-1c0.6-0.2,1.2-0.4,1.9-0.4c3.3,0,6.7,0.2,10,0.3c0.7,0,1.3,0.2,1.9,0.5
			c0.6,0.3,1.1,0.7,1.6,1.1c0.4,0.5,0.8,1,1,1.6c0.3,0.6,0.4,1.2,0.4,1.9c0,1.1,0,2.2,0,3.2c-1.8,0.2-3.6,0.4-5.3,0.6c0-1,0-2,0-3
			c0-0.3-0.1-0.6-0.4-0.8c-0.2-0.2-0.5-0.4-0.8-0.4c-2.2-0.1-4.5-0.2-6.7-0.2c-0.3,0-0.6,0.1-0.8,0.3c-0.2,0.2-0.4,0.5-0.4,0.8
			c0,5.7,0,11.5,0,17.2c0,0.3,0.1,0.6,0.4,0.8c0.2,0.2,0.5,0.3,0.8,0.3c2.2,0,4.5,0.1,6.7,0.2c0.3,0,0.6-0.1,0.8-0.3
			c0.2-0.2,0.4-0.5,0.4-0.8c0-1.6,0-3.3,0-4.9c-1.7-0.1-3.4-0.1-5.2-0.2c0-1.5,0-3.1,0-4.6c3.5,0.1,7,0.3,10.5,0.5
			c0,3.5,0,7.1,0,10.6c0,0.7-0.1,1.3-0.4,1.8c-0.3,0.6-0.6,1.1-1,1.5c-0.4,0.4-1,0.7-1.6,0.9c-0.6,0.2-1.2,0.3-1.9,0.3
			c-3.3-0.2-6.7-0.3-10-0.3c-0.7,0-1.3-0.1-1.9-0.4c-0.6-0.3-1.1-0.6-1.5-1c-0.4-0.4-0.8-0.9-1-1.5c-0.3-0.6-0.4-1.2-0.4-1.9
			C169.9,43.1,169.9,36.6,169.9,30.1z M148.1,26.2c1.9,3.7,3.9,7.4,5.8,11.2c1.9-4,3.9-7.9,5.8-11.9c1.9-0.1,3.8-0.1,5.7-0.2
			c-2.9,5.9-5.9,11.8-8.8,17.7c0,3.9,0,7.8,0,11.7c-1.8,0.1-3.6,0.2-5.3,0.3c0-3.9,0-7.8,0-11.7c-2.9-5.6-5.9-11.1-8.8-16.6
			C144.3,26.6,146.2,26.4,148.1,26.2z M116.8,30.7c1.8-0.4,3.5-0.7,5.3-1c0,4,0,7.9,0,11.9c3.3-0.6,6.6-1.1,10-1.6c0-4,0-7.9,0-11.9
			c1.8-0.3,3.5-0.5,5.3-0.7c0,9.7,0,19.4,0,29.1c-1.8,0.2-3.5,0.5-5.3,0.7c0-4.2,0-8.3,0-12.5c-3.3,0.5-6.7,1-10,1.6
			c0,4.2,0,8.3,0,12.5c-1.8,0.3-3.5,0.6-5.3,1C116.8,50.1,116.8,40.4,116.8,30.7z M90.9,37.1c4.9-1.5,9.8-2.8,14.7-4
			c0.7-0.2,1.3-0.2,1.9-0.1c0.6,0.1,1.1,0.3,1.5,0.7c0.4,0.3,0.8,0.8,1,1.3c0.2,0.5,0.4,1.1,0.4,1.8c0,2.8,0,5.5,0,8.3
			c0,0.7-0.1,1.3-0.4,2c-0.2,0.6-0.6,1.2-1,1.8c-0.4,0.5-0.9,1-1.5,1.4c-0.6,0.4-1.2,0.7-1.9,0.8c-3.2,0.8-6.4,1.6-9.5,2.5
			c0,3.7,0,7.5,0,11.2c-1.7,0.5-3.5,1-5.2,1.5C90.9,56.5,90.9,46.8,90.9,37.1z M64.9,67.4c1.7-1,3.4-2,5.1-2.9c0,1,0,2,0,3.1
			c0,0.3,0.1,0.5,0.3,0.7c0.2,0.1,0.5,0.1,0.8,0c2-0.8,4-1.5,6-2.2c0.3-0.1,0.6-0.3,0.8-0.6c0.2-0.3,0.3-0.6,0.3-0.9
			c0-1.4,0-2.8,0-4.2c0-0.3-0.1-0.5-0.3-0.7c-0.2-0.1-0.5-0.2-0.8-0.1c-0.8,0.1-1.5,0.1-2.1,0.2c-0.6,0-1.2,0.1-1.7,0.1
			c-0.6,0-1.1,0.1-1.7,0.1c-0.6,0-1.3,0.1-2,0.2c-0.6,0-1.2,0-1.8,0c-0.5,0-1-0.2-1.4-0.4c-0.4-0.2-0.7-0.5-1-0.9
			c-0.2-0.4-0.4-0.9-0.4-1.6c0-2,0-4,0-6c0-0.7,0.1-1.3,0.4-2c0.2-0.7,0.6-1.3,1-1.9c0.4-0.6,0.9-1.1,1.5-1.6
			c0.6-0.5,1.2-0.8,1.8-1.1c3-1.2,6-2.3,9-3.4c0.7-0.2,1.3-0.3,1.8-0.3c0.6,0.1,1.1,0.2,1.5,0.5c0.4,0.3,0.8,0.7,1,1.2
			c0.2,0.5,0.4,1.1,0.4,1.8c0,1.1,0,2.3,0,3.4c-1.7,0.9-3.4,1.7-5.1,2.6c0-1,0-2.1,0-3.1c0-0.3-0.1-0.5-0.3-0.7
			c-0.2-0.1-0.5-0.2-0.8,0c-1.9,0.7-3.9,1.4-5.8,2.2c-0.3,0.1-0.6,0.3-0.8,0.6c-0.2,0.3-0.3,0.6-0.3,0.9c0,1.2,0,2.4,0,3.6
			c0,0.3,0.1,0.5,0.3,0.7c0.2,0.1,0.5,0.2,0.8,0.1c1.2-0.1,2.4-0.2,3.6-0.3c1.2-0.1,2.5-0.2,4.1-0.3c1.2-0.1,2.3,0.1,3.1,0.5
			c0.9,0.4,1.3,1.3,1.3,2.7c0,2.2,0,4.3,0,6.5c0,0.7-0.1,1.3-0.4,2c-0.2,0.7-0.6,1.3-1,1.9c-0.4,0.6-0.9,1.1-1.5,1.5
			c-0.6,0.4-1.2,0.8-1.8,1c-3.1,1.1-6.1,2.2-9.2,3.4c-0.6,0.3-1.3,0.4-1.8,0.3c-0.6,0-1.1-0.2-1.5-0.4c-0.4-0.3-0.8-0.6-1-1.1
			c-0.2-0.5-0.4-1.1-0.4-1.7C64.9,69.6,64.9,68.5,64.9,67.4z M329.4,282.2c-4,66.9-36.5,110-63,134.3
			c-15.3,14.1-32.9,25.7-50.8,33.6c-16,7.1-31.8,10.9-44.6,10.9s-28.7-3.9-44.6-10.9c-17.9-7.9-35.5-19.5-50.8-33.6
			c-26.5-24.3-58.9-67.4-63-134.3c-2.9-48.2-1.9-84.1,3.1-112.8c5.2-30.1,15.1-52.5,30.3-68.6C70.1,75.1,109.8,63.1,171,63.1
			s100.9,12,125.1,37.7c15.1,16.1,25,38.5,30.3,68.6C331.4,198.1,332.4,234,329.4,282.2z"/>
		<linearGradient id="SVGID_2_" gradientUnits="userSpaceOnUse" x1="155.4113" y1="-57.7627" x2="-68.2483" y2="353.5565">
			<stop  offset="0" style="stop-color:#FBE456"/>
			<stop  offset="1" style="stop-color:#E09B29"/>
		</linearGradient>
		<path class="st3" d="M104.8,46.1c0.2-0.3,0.3-0.6,0.3-0.9c0-2,0-4,0-6c0-0.3-0.1-0.6-0.3-0.7c-0.2-0.2-0.5-0.2-0.8-0.1
			c-2.6,0.7-5.3,1.4-7.9,2.1c0,2.8,0,5.5,0,8.3c2.6-0.7,5.3-1.4,7.9-2.1C104.3,46.5,104.6,46.3,104.8,46.1z"/>
	</g>
	<g>
		<path class="st4" d="M262.9,108.3c-26.8-15.5-51.5-22.4-74.2-20.6c-22.7,1.7-39.1,11.4-49.2,28.9c-9,15.7-12.1,30.3-9.2,43.9
			c2.9,13.6,13.2,28.7,30.9,45.2c9.4,8.6,23.1,20.3,41,35.2c9.4,7.8,17.9,15.1,25.6,21.9l52.2-30.4c1.4,30.9-12.4,45.4-29.7,51.7
			c21.5,22.3,34.9,44.5,40.1,66.5c0.6,2.4,1,4.9,1.4,7.3c12.9-22.2,21.8-48.9,23.7-80c2.3-37.9,2-69.9-2.4-96.3
			c-5-30.6-23.2-57.5-50-73.1C263.1,108.4,263,108.3,262.9,108.3z"/>
		<path class="st4" d="M113.7,421.6c14,8.1,29.7,12.9,45.9,13.1c2.4,0,4.8,0,7.1-0.2c24-1.7,41.5-12.2,52.7-31.6
			c9.6-16.7,12.6-31.4,9-44c-3.6-12.6-12.5-26-26.6-40c-10.7-10.7-22.8-21.4-36.2-32.1c-13.5-10.7-27.5-22.5-42-35.4
			c-29.3-26.4-47-52.7-53.2-79.2c-5.7-24.3-2.1-49.1,10.9-74.3C31.6,124.2,20.6,182,26.4,277.9C30.7,349.6,72.3,397.5,113.7,421.6z
			 M61.9,232.4l89.5,52.1C151.4,284.5,58.3,309.9,61.9,232.4z"/>
	</g>
</g>
</svg>
