<?xml version="1.0" encoding="utf-8"?>
<!-- Generator: Adobe Illustrator 28.1.0, SVG Export Plug-In . SVG Version: 6.00 Build 0)  -->
<svg version="1.1" id="Layer_1" xmlns="http://www.w3.org/2000/svg" xmlns:xlink="http://www.w3.org/1999/xlink" x="0px" y="0px"
	 viewBox="0 0 8 16" style="enable-background:new 0 0 8 16;" xml:space="preserve">
<path d="M0.2,8.5H2v7.2C2,15.9,2.1,16,2.2,16h3c0.1,0,0.3-0.1,0.3-0.3V8.6h2c0.1,0,0.2-0.1,0.3-0.2L8,5.7c0-0.1,0-0.1-0.1-0.2
	c0-0.1-0.1-0.1-0.2-0.1H5.5V3.7C5.5,3.2,5.7,3,6.3,3c0.1,0,1.5,0,1.5,0C7.9,3,8,2.8,8,2.7V0.3C8,0.1,7.9,0,7.8,0H5.7c0,0,0,0-0.1,0
	C5.2,0,4,0.1,3,1C1.9,2,2,3.2,2.1,3.4v1.9H0.2C0.1,5.4,0,5.5,0,5.6v2.6C0,8.4,0.1,8.5,0.2,8.5z"/>
</svg>
