<?xml version="1.0" encoding="utf-8"?>
<!-- Generator: Adobe Illustrator 28.1.0, SVG Export Plug-In . SVG Version: 6.00 Build 0)  -->
<svg version="1.1" id="Layer_1" xmlns="http://www.w3.org/2000/svg" xmlns:xlink="http://www.w3.org/1999/xlink" x="0px" y="0px"
	 viewBox="0 0 16 16" style="enable-background:new 0 0 16 16;" xml:space="preserve">
<g transform="translate(1.4065934065934016 1.4065934065934016) scale(2.81 2.81)">
	<path d="M-0.4,1.4h1.2v3.8h-1.2V1.4z M0.2-0.5c0.4,0,0.7,0.3,0.7,0.7c0,0.4-0.3,0.7-0.7,0.7c-0.4,0-0.7-0.3-0.7-0.7
		C-0.5-0.2-0.2-0.5,0.2-0.5"/>
	<path d="M1.5,1.4h1.1v0.5h0c0.2-0.3,0.5-0.6,1.1-0.6c1.2,0,1.4,0.8,1.4,1.8v2.1H4V3.3c0-0.4,0-1-0.6-1c-0.6,0-0.7,0.5-0.7,1v1.9
		H1.5V1.4z"/>
</g>
</svg>
