<?xml version="1.0" encoding="utf-8"?>
<!-- Generator: Adobe Illustrator 28.1.0, SVG Export Plug-In . SVG Version: 6.00 Build 0)  -->
<svg version="1.1" id="Layer_1" xmlns="http://www.w3.org/2000/svg" xmlns:xlink="http://www.w3.org/1999/xlink" x="0px" y="0px"
	 viewBox="0 0 14 16" style="enable-background:new 0 0 14 16;" xml:space="preserve">
<path d="M13.2,3.7c-1.6-0.4-2.9-1.7-3-3.4V0H7.4v11c0,1.3-1,2.3-2.3,2.3c-0.7,0-1.4-0.3-1.8-0.9l0,0l0,0c-0.8-1-0.6-2.5,0.4-3.2
	c0.6-0.5,1.4-0.6,2.1-0.4V5.9C3,5.5,0.4,7.5,0,10.3c-0.2,1.5,0.3,3.1,1.4,4.2c2,2,5.2,2,7.2,0.1c1-1,1.5-2.3,1.5-3.6V5.3
	c1.1,0.8,2.4,1.2,3.8,1.2V3.8C13.7,3.8,13.4,3.8,13.2,3.7z"/>
</svg>
