<?xml version="1.0" encoding="utf-8"?>
<!-- Generator: Adobe Illustrator 28.1.0, SVG Export Plug-In . SVG Version: 6.00 Build 0)  -->
<svg version="1.1" id="Layer_1" xmlns="http://www.w3.org/2000/svg" xmlns:xlink="http://www.w3.org/1999/xlink" x="0px" y="0px"
	 viewBox="0 0 16 16" style="enable-background:new 0 0 16 16;" xml:space="preserve">
<path d="M15.6,4.1c-0.1-0.8-0.9-1.4-1.7-1.6c-1.2-0.3-3.5-0.4-5.9-0.4c-2.4,0-4.8,0.2-6,0.4C1.2,2.7,0.4,3.2,0.3,4.1
	C0.1,5,0,6.3,0,8s0.1,3,0.3,3.9c0.1,0.8,0.9,1.4,1.7,1.6c1.3,0.3,3.5,0.4,6,0.4s4.7-0.2,6-0.4c0.8-0.2,1.5-0.7,1.7-1.6
	C15.8,11,16,9.6,16,8C15.9,6.3,15.7,5,15.6,4.1z M5.9,10.6V5.4L10.5,8L5.9,10.6z"/>
</svg>
