<?xml version="1.0" encoding="utf-8"?>
<!-- Generator: Adobe Illustrator 28.0.0, SVG Export Plug-In . SVG Version: 6.00 Build 0)  -->
<svg version="1.1" xmlns="http://www.w3.org/2000/svg" xmlns:xlink="http://www.w3.org/1999/xlink" x="0px" y="0px"
	 viewBox="0 0 342 472" style="enable-background:new 0 0 342 472;" xml:space="preserve">
<style type="text/css">
	.st0{display:none;}
	.st1{display:inline;}
	.st2{fill:url(#SVGID_1_);}
	.st3{fill:url(#SVGID_00000118365985690749305820000005346349790616246430_);}
	.st4{fill:#FFFFFF;}
</style>
<g id="Layer_2" class="st0">
</g>
<g id="Layer_1">
	<g class="st0">
		<path class="st1" d="M263.16,109.11c-26.86-15.51-51.65-22.39-74.39-20.66c-22.74,1.74-39.17,11.39-49.32,28.96
			c-9.07,15.71-12.13,30.39-9.19,44.02c2.94,13.64,13.26,28.72,30.97,45.25c9.44,8.61,23.16,20.36,41.14,35.24
			c9.4,7.78,17.94,15.1,25.65,21.97l52.4-30.46c1.45,30.91-12.48,45.46-29.77,51.81c21.62,22.38,35.05,44.58,40.27,66.6
			c0.57,2.42,1.03,4.87,1.37,7.33c12.92-22.22,21.87-48.94,23.76-80.15c2.3-38,1.96-70.03-2.36-96.5
			c-5.01-30.65-23.31-57.64-50.18-73.22C263.4,109.24,263.28,109.17,263.16,109.11z"/>
		<path class="st1" d="M113.49,422.95c14.02,8.12,29.8,12.91,46.01,13.07c2.41,0.02,4.78-0.04,7.12-0.2
			c24.04-1.66,41.67-12.2,52.88-31.63c9.65-16.72,12.67-31.42,9.07-44.09c-3.61-12.67-12.51-26.03-26.69-40.08
			c-10.72-10.69-22.83-21.4-36.34-32.13c-13.52-10.73-27.57-22.56-42.17-35.5c-29.35-26.41-47.14-52.84-53.37-79.3
			c-5.74-24.36-2.09-49.17,10.93-74.45c-49.76,26.42-60.78,84.31-54.97,180.4C30.28,350.82,71.95,398.89,113.49,422.95z
			 M61.57,233.44l89.77,52.17C151.34,285.61,57.93,311.09,61.57,233.44z"/>
	</g>
	<g>
		<linearGradient id="SVGID_1_" gradientUnits="userSpaceOnUse" x1="289.748" y1="15.2844" x2="66.0884" y2="426.6036">
			<stop  offset="0" style="stop-color:#FBE456"/>
			<stop  offset="1" style="stop-color:#E09B29"/>
		</linearGradient>
		<path class="st2" d="M299.6,88.86c-8.85-8.3-13.84-19.92-13.84-32.05V41.29c0,0,0,0,0,0c-5.35-2.29-9.51-6.7-11.38-12.21
			l-3.93-11.56c-6.48,8.22-17.21,11.78-27.34,9.16c-2.63-0.68-5.26-1.32-7.91-1.93c-7.65-1.75-14.13-6.78-17.68-13.78L211.97,0l0,0
			c-6.42,11.35-18.62,18.1-31.65,17.68c-6.21-0.2-12.43-0.2-18.65,0C148.65,18.1,136.45,11.35,130.03,0l-5.56,10.97
			c-3.55,7-10.03,12.03-17.68,13.78c-2.64,0.6-5.27,1.24-7.89,1.92c-10.14,2.62-20.86-0.95-27.35-9.17l-3.89,11.45
			c-1.88,5.51-5.99,9.98-11.34,12.29l-0.08,0.04v15.53c0,12.13-4.99,23.75-13.84,32.05C4.27,124.64-4.11,187.72,1.64,282.88
			C9.24,408.6,114.9,472,171,472s161.76-63.4,169.36-189.12C346.11,187.72,337.73,124.64,299.6,88.86z M258.61,60.5
			c1.71,0.28,3.42,0.58,5.13,0.89c0,1.02,0,2.04,0,3.06c0,0.32,0.11,0.63,0.34,0.93c0.23,0.3,0.5,0.51,0.81,0.62
			c2,0.72,4,1.47,5.98,2.23c0.31,0.12,0.58,0.11,0.8-0.02c0.22-0.13,0.34-0.36,0.34-0.68c0-1.4,0-2.8,0-4.2
			c0-0.32-0.11-0.62-0.32-0.91c-0.21-0.29-0.49-0.54-0.82-0.76c-0.82-0.55-1.52-1.02-2.12-1.42c-0.59-0.4-1.17-0.78-1.72-1.14
			c-0.55-0.36-1.12-0.74-1.7-1.13c-0.58-0.39-1.27-0.84-2.07-1.35c-0.62-0.42-1.22-0.86-1.77-1.32c-0.55-0.45-1.04-0.94-1.45-1.46
			c-0.41-0.52-0.74-1.07-0.98-1.64c-0.24-0.58-0.36-1.2-0.36-1.87c0-2,0-3.99,0-5.99c0-0.67,0.12-1.26,0.36-1.76
			c0.24-0.5,0.57-0.9,0.98-1.2c0.41-0.3,0.9-0.47,1.47-0.52c0.57-0.05,1.18,0.04,1.84,0.27c3.01,1.07,6.01,2.18,9,3.36
			c0.65,0.25,1.25,0.62,1.81,1.09c0.56,0.47,1.05,1.01,1.47,1.62c0.42,0.61,0.75,1.25,0.99,1.94c0.24,0.68,0.36,1.36,0.36,2.03
			c0,1.14,0,2.27,0,3.41c-1.68-0.4-3.37-0.79-5.06-1.16c0-1.05,0-2.1,0-3.15c0-0.32-0.11-0.63-0.34-0.94
			c-0.22-0.31-0.49-0.52-0.8-0.64c-1.93-0.75-3.87-1.47-5.81-2.17c-0.31-0.11-0.58-0.1-0.81,0.04c-0.23,0.14-0.34,0.37-0.34,0.69
			c0,1.21,0,2.42,0,3.63c0,0.32,0.11,0.63,0.34,0.93c0.23,0.3,0.5,0.55,0.81,0.75c1.25,0.83,2.46,1.63,3.63,2.39
			c1.17,0.76,2.54,1.68,4.08,2.75c1.21,0.83,2.24,1.78,3.1,2.86c0.85,1.08,1.28,2.29,1.28,3.63c0,2.17,0,4.34,0,6.52
			c0,0.67-0.12,1.25-0.36,1.73c-0.24,0.48-0.56,0.86-0.97,1.13c-0.41,0.27-0.89,0.42-1.45,0.44c-0.56,0.02-1.17-0.1-1.81-0.35
			c-3.04-1.2-6.09-2.34-9.16-3.42c-0.66-0.23-1.27-0.57-1.84-1.01c-0.57-0.44-1.07-0.96-1.5-1.54c-0.43-0.58-0.76-1.21-1.01-1.87
			c-0.24-0.66-0.36-1.33-0.36-2C258.61,62.72,258.61,61.61,258.61,60.5z M231.57,32c1.75,0.39,3.5,0.8,5.24,1.23
			c0,7.73,0,15.45,0,23.18c0,0.32,0.11,0.62,0.35,0.89c0.23,0.28,0.51,0.45,0.83,0.53c2.18,0.54,4.35,1.11,6.52,1.71
			c0.32,0.09,0.59,0.05,0.82-0.1c0.23-0.15,0.35-0.39,0.35-0.71c0-7.73,0-15.45,0-23.18c1.73,0.48,3.46,0.99,5.19,1.51
			c0,8.1,0,16.21,0,24.31c0,0.67-0.12,1.26-0.37,1.77c-0.24,0.51-0.58,0.92-1.01,1.23c-0.43,0.31-0.94,0.5-1.51,0.59
			c-0.58,0.08-1.2,0.03-1.86-0.16c-3.25-0.91-6.51-1.77-9.78-2.56c-0.67-0.16-1.3-0.44-1.88-0.82c-0.58-0.38-1.09-0.84-1.51-1.38
			c-0.42-0.53-0.76-1.12-1.01-1.76c-0.25-0.64-0.37-1.29-0.37-1.96C231.57,48.21,231.57,40.1,231.57,32z M197.45,26.57
			c1.7,0.16,3.4,0.34,5.11,0.54c2.65,6.25,5.29,12.54,7.93,18.87c2.64-5.57,5.27-11.1,7.91-16.59c1.69,0.29,3.38,0.6,5.06,0.93
			c0,9.71,0,19.42,0,29.12c-1.69-0.32-3.37-0.63-5.06-0.93c-0.01-5.8-0.03-11.61-0.04-17.41c-1.87,3.81-3.75,7.65-5.62,11.5
			c-1.51-0.23-3.01-0.45-4.52-0.65c-1.88-4.39-3.76-8.77-5.65-13.12c0,5.8,0,11.6,0,17.4c-1.7-0.19-3.4-0.37-5.11-0.54
			C197.45,45.98,197.45,36.27,197.45,26.57z M169.88,30.11c0-0.67,0.13-1.3,0.38-1.88c0.25-0.58,0.59-1.09,1.03-1.53
			c0.43-0.44,0.94-0.78,1.54-1.02c0.59-0.24,1.23-0.36,1.92-0.35c3.34,0.05,6.69,0.15,10.03,0.32c0.68,0.03,1.32,0.19,1.91,0.47
			c0.59,0.28,1.11,0.66,1.56,1.12c0.45,0.46,0.79,1,1.05,1.6c0.25,0.6,0.38,1.24,0.38,1.91c0,1.08,0,2.16,0,3.24
			c-1.78,0.17-3.56,0.36-5.34,0.57c0-0.99,0-1.98,0-2.97c0-0.32-0.12-0.6-0.36-0.83c-0.24-0.23-0.52-0.35-0.85-0.37
			c-2.23-0.1-4.46-0.17-6.68-0.21c-0.33-0.01-0.61,0.1-0.85,0.31c-0.24,0.21-0.36,0.48-0.36,0.8c0,5.74,0,11.49,0,17.23
			c0,0.32,0.12,0.59,0.36,0.81c0.24,0.22,0.52,0.34,0.85,0.34c2.23,0.04,4.46,0.11,6.68,0.21c0.33,0.01,0.61-0.08,0.85-0.29
			c0.24-0.21,0.36-0.47,0.36-0.79c0-1.63,0-3.26,0-4.9c-1.72-0.08-3.45-0.15-5.17-0.2c0-1.53,0-3.06,0-4.59
			c3.51,0.1,7.01,0.27,10.51,0.51c0,3.55,0,7.09,0,10.64c0,0.67-0.13,1.29-0.38,1.85c-0.25,0.56-0.6,1.05-1.05,1.46
			c-0.45,0.41-0.97,0.72-1.56,0.93c-0.59,0.21-1.23,0.3-1.91,0.27c-3.34-0.17-6.68-0.27-10.03-0.32c-0.68-0.01-1.32-0.14-1.92-0.39
			c-0.59-0.25-1.11-0.6-1.54-1.03c-0.43-0.44-0.77-0.95-1.03-1.53c-0.25-0.58-0.38-1.21-0.38-1.88
			C169.88,43.11,169.88,36.61,169.88,30.11z M148.1,26.25c1.94,3.7,3.88,7.42,5.83,11.17c1.94-3.98,3.89-7.94,5.83-11.89
			c1.89-0.08,3.77-0.13,5.66-0.17c-2.94,5.86-5.88,11.77-8.82,17.72c0,3.91,0,7.81,0,11.72c-1.78,0.09-3.56,0.2-5.34,0.33
			c0-3.91,0-7.81,0-11.72c-2.94-5.59-5.87-11.14-8.8-16.63C144.34,26.58,146.22,26.4,148.1,26.25z M116.79,30.65
			c1.76-0.35,3.52-0.68,5.28-1c0,3.95,0,7.9,0,11.85c3.32-0.6,6.65-1.13,9.98-1.6c0-3.95,0-7.9,0-11.85
			c1.77-0.25,3.54-0.49,5.32-0.7c0,9.71,0,19.42,0,29.12c-1.77,0.22-3.55,0.45-5.32,0.7c0-4.15,0-8.31,0-12.46
			c-3.33,0.47-6.66,1.01-9.98,1.6c0,4.15,0,8.31,0,12.46c-1.76,0.32-3.52,0.65-5.28,1C116.79,50.07,116.79,40.36,116.79,30.65z
			 M90.91,37.12c4.87-1.47,9.78-2.81,14.71-4c0.67-0.16,1.29-0.19,1.88-0.08c0.58,0.11,1.09,0.34,1.53,0.67
			c0.44,0.34,0.78,0.77,1.03,1.3c0.25,0.53,0.37,1.13,0.37,1.8c0,2.75,0,5.51,0,8.26c0,0.67-0.12,1.33-0.37,1.96
			c-0.25,0.64-0.59,1.23-1.03,1.76c-0.44,0.54-0.95,1-1.53,1.38c-0.58,0.39-1.21,0.66-1.88,0.82c-3.18,0.77-6.36,1.6-9.52,2.49
			c0,3.75,0,7.49,0,11.24c-1.73,0.49-3.46,0.99-5.19,1.51C90.91,56.54,90.91,46.83,90.91,37.12z M64.94,67.39
			c1.68-0.99,3.36-1.96,5.05-2.91c0,1.02,0,2.04,0,3.06c0,0.32,0.11,0.55,0.34,0.68c0.23,0.13,0.49,0.14,0.8,0.02
			c1.99-0.77,3.98-1.51,5.98-2.23c0.31-0.11,0.58-0.32,0.81-0.62c0.23-0.3,0.34-0.61,0.34-0.93c0-1.4,0-2.8,0-4.2
			c0-0.32-0.11-0.55-0.32-0.67c-0.21-0.13-0.49-0.17-0.83-0.14c-0.82,0.06-1.53,0.12-2.13,0.16c-0.59,0.04-1.17,0.09-1.72,0.14
			c-0.55,0.05-1.12,0.09-1.69,0.14c-0.58,0.05-1.26,0.11-2.05,0.19c-0.62,0.04-1.2,0.04-1.75,0c-0.55-0.04-1.03-0.17-1.43-0.38
			c-0.41-0.21-0.73-0.52-0.97-0.92c-0.24-0.4-0.36-0.93-0.36-1.6c0-2,0-3.99,0-5.99c0-0.67,0.12-1.35,0.36-2.03
			c0.24-0.68,0.56-1.32,0.97-1.93c0.41-0.6,0.89-1.14,1.45-1.62c0.56-0.47,1.17-0.84,1.81-1.09c2.98-1.17,5.98-2.29,9-3.36
			c0.65-0.23,1.26-0.32,1.83-0.27c0.57,0.05,1.07,0.22,1.5,0.51c0.43,0.29,0.76,0.69,1.01,1.19c0.24,0.5,0.36,1.09,0.36,1.76
			c0,1.14,0,2.27,0,3.41c-1.71,0.86-3.42,1.74-5.13,2.64c0-1.05,0-2.1,0-3.15c0-0.32-0.11-0.55-0.34-0.69
			c-0.23-0.14-0.5-0.15-0.81-0.04c-1.94,0.7-3.88,1.42-5.81,2.17c-0.31,0.12-0.58,0.33-0.8,0.64c-0.23,0.31-0.34,0.62-0.34,0.94
			c0,1.21,0,2.42,0,3.63c0,0.32,0.11,0.55,0.34,0.68c0.22,0.13,0.49,0.18,0.8,0.15c1.24-0.1,2.45-0.21,3.62-0.32
			c1.17-0.11,2.54-0.22,4.11-0.3c1.22-0.08,2.27,0.1,3.14,0.53c0.87,0.43,1.31,1.33,1.31,2.67c0,2.17,0,4.34,0,6.52
			c0,0.67-0.12,1.34-0.36,2c-0.24,0.66-0.57,1.28-0.98,1.86c-0.41,0.58-0.91,1.09-1.47,1.53C80,69.67,79.39,70,78.73,70.23
			c-3.07,1.08-6.13,2.22-9.17,3.42c-0.65,0.25-1.25,0.37-1.81,0.35c-0.56-0.02-1.05-0.17-1.47-0.43c-0.42-0.27-0.75-0.64-0.99-1.13
			c-0.24-0.48-0.36-1.06-0.36-1.73C64.94,69.61,64.94,68.5,64.94,67.39z M329.45,282.22c-4.04,66.93-36.48,109.98-62.97,134.31
			c-15.31,14.06-32.89,25.68-50.83,33.6c-15.98,7.06-31.84,10.94-44.65,10.94s-28.67-3.89-44.65-10.94
			c-17.94-7.92-35.52-19.54-50.83-33.6c-26.5-24.33-58.93-67.38-62.97-134.31c-2.91-48.24-1.94-84.09,3.06-112.82
			c5.24-30.08,15.14-52.51,30.27-68.59C70.07,75.12,109.82,63.15,171,63.15s100.93,11.97,125.12,37.66
			c15.13,16.08,25.03,38.51,30.27,68.59C331.39,198.13,332.36,233.98,329.45,282.22z"/>
		
			<linearGradient id="SVGID_00000102514326123879543520000002209408584164968360_" gradientUnits="userSpaceOnUse" x1="155.4113" y1="-57.7627" x2="-68.2483" y2="353.5565">
			<stop  offset="0" style="stop-color:#FBE456"/>
			<stop  offset="1" style="stop-color:#E09B29"/>
		</linearGradient>
		<path style="fill:url(#SVGID_00000102514326123879543520000002209408584164968360_);" d="M104.84,46.06
			c0.23-0.28,0.35-0.57,0.35-0.89c0-2,0-3.99,0-5.99c0-0.32-0.12-0.56-0.35-0.72c-0.23-0.16-0.51-0.2-0.83-0.12
			c-2.64,0.66-5.28,1.36-7.91,2.09c0,2.75,0,5.51,0,8.26c2.63-0.74,5.26-1.44,7.91-2.09C104.33,46.51,104.6,46.34,104.84,46.06z"/>
	</g>
	<g>
		<path class="st4" d="M262.87,108.26c-26.77-15.48-51.49-22.35-74.15-20.62c-22.67,1.73-39.05,11.37-49.16,28.91
			c-9.04,15.68-12.1,30.33-9.17,43.94c2.93,13.61,13.22,28.67,30.87,45.17c9.41,8.59,23.08,20.32,41.01,35.18
			c9.37,7.77,17.89,15.08,25.57,21.94l52.24-30.4c1.44,30.85-12.44,45.39-29.68,51.72c21.55,22.34,34.94,44.5,40.14,66.49
			c0.57,2.42,1.02,4.86,1.37,7.32c12.88-22.18,21.8-48.85,23.68-80.01c2.29-37.94,1.95-69.91-2.36-96.34
			c-4.99-30.6-23.24-57.55-50.02-73.09C263.1,108.4,262.99,108.33,262.87,108.26z"/>
		<path class="st4" d="M113.67,421.57c13.98,8.11,29.71,12.88,45.86,13.05c2.4,0.02,4.76-0.04,7.1-0.2
			c23.96-1.66,41.54-12.18,52.72-31.58c9.62-16.7,12.63-31.37,9.04-44.02c-3.6-12.65-12.47-25.98-26.61-40.01
			c-10.68-10.67-22.76-21.37-36.23-32.08c-13.47-10.71-27.48-22.52-42.04-35.44c-29.25-26.36-46.99-52.75-53.2-79.16
			c-5.72-24.32-2.09-49.09,10.89-74.32c-49.61,26.37-60.59,84.17-54.8,180.09C30.72,349.56,72.27,397.54,113.67,421.57z
			 M61.92,232.38l89.48,52.08C151.4,284.46,58.29,309.9,61.92,232.38z"/>
	</g>
</g>
</svg>
