<svg id="Layer_1" data-name="Layer 1" xmlns="http://www.w3.org/2000/svg" viewBox="0 0 20 20"><defs><style>.cls-1{fill:#a3d07a;}</style></defs><title>celery</title><path class="cls-1" d="M20,10A10,10,0,1,0,10,20,10,10,0,0,0,20,10m-1.88,0A8.12,8.12,0,1,1,10,1.88,8.12,8.12,0,0,1,18.12,10"/><path class="cls-1" d="M10.37,4.07l.25-.12c.07,0,.11,0,.09.08a1.67,1.67,0,0,1-.07.19h0c.05,0,.05,0,0,.05a.54.54,0,0,1-.18.28.82.82,0,0,0-.27.32c0,.06,0,.11,0,.17L10.35,5A.82.82,0,0,1,11,4.67h0l0,0-.09.13H11l.2,0s.06,0,0,.08l-.13.22.16.21a1.1,1.1,0,0,1,.18-.45l.09.17a1,1,0,0,1,.35-.35.61.61,0,0,1,0,.51l.2-.1a1.51,1.51,0,0,1-.16.46l.34,0a.26.26,0,0,1-.13.25l.16.23.25-.35.06.2a1.14,1.14,0,0,1,.46-.33l-.07.53.17,0a1.06,1.06,0,0,1-.23.41l.36,0c0,.13-.13.18-.23.23l.1,0a.55.55,0,0,1-.31.2,2.4,2.4,0,0,0-.34.1.49.49,0,0,0-.15.12s0,0,0,.06h.08a.78.78,0,0,1,.35-.06.88.88,0,0,1,.44.14l-.17.07a.72.72,0,0,1,.31.22l-.26.14.07.08a.36.36,0,0,1-.24.09l-.46,0a1.53,1.53,0,0,0-.62,0,.17.17,0,0,0-.08.06c-.18.3-.35.6-.53.9a.51.51,0,0,0-.06.3c0,.41,0,.82,0,1.24s0,.59,0,.89c0,.12,0,.24,0,.36,0,.46,0,.93,0,1.39,0,.26,0,.52,0,.77s0,.73,0,1.09,0,.6,0,.9a1,1,0,0,1-.62.87,1,1,0,0,1-.27.1,1.48,1.48,0,0,1-.88-.09,1.08,1.08,0,0,1-.64-.75,2.15,2.15,0,0,1,0-.51c0-.83,0-1.66,0-2.49q0-2,0-3.93a.53.53,0,0,0-.1-.24c-.15-.26-.31-.52-.46-.78a.21.21,0,0,0-.16-.1,1.62,1.62,0,0,0-.51,0A1.7,1.7,0,0,1,7,7.89L6.8,7.84l.08-.1L6.57,7.6a.72.72,0,0,1,.31-.22L6.71,7.3l.21-.1a.81.81,0,0,1,.59,0H7.6A.25.25,0,0,0,7.43,7a2.58,2.58,0,0,0-.35-.1.58.58,0,0,1-.32-.2l.1,0a.38.38,0,0,1-.23-.21.64.64,0,0,1,.35,0L6.75,6l0,0,.17.05a1.1,1.1,0,0,1,0-.51,1,1,0,0,1,.42.3l0-.18h0L7.62,6l.16-.24c-.12-.13-.12-.13-.13-.24l.34,0a1.12,1.12,0,0,1-.14-.44L8,5.2l0-.48h0a1,1,0,0,1,.35.36l.08-.19a1.13,1.13,0,0,1,.18.46.74.74,0,0,1,.12-.15c.07-.05.07-.09,0-.15a.34.34,0,0,1-.07-.11c0-.06,0-.1.06-.1h.27L9,4.69h.1a.92.92,0,0,1,.48.18,1.28,1.28,0,0,1,.1.11L9.77,5a.16.16,0,0,0,0-.17.94.94,0,0,0-.27-.32.48.48,0,0,1-.19-.33H9.4l0,0s0-.1-.06-.15,0-.06,0-.07a.08.08,0,0,1,.07,0l.25.12a1,1,0,0,1,0-.46l.13.12A1,1,0,0,1,10,3.26a1.3,1.3,0,0,1,.21.45h0l.1-.12a.8.8,0,0,1,0,.46m.11,9.11h0l0,0a5.35,5.35,0,0,0,.15-1.06c0-.21,0-.43,0-.65,0-.38.06-.76.08-1.14,0-.11,0-.22,0-.33q0-.44,0-.88l0-.89q0-.53.06-1.05a.26.26,0,0,0,0-.14,1,1,0,0,0-.15-.19,4.14,4.14,0,0,1-.59-.55h0q.16,3.46.33,6.92m-.58-6.9h0a1,1,0,0,1-.09.12l-.54.49c-.06.05-.13.11-.12.21L9.16,8l.11,1.79c0,.32,0,.64.06,1s0,.66.06,1a7.33,7.33,0,0,0,.11,1.17l.06.27h0q.15-3.46.3-6.92m-1.11,2h0V7.89c0-.23,0-.46,0-.69a.1.1,0,0,0,0-.08s-.06,0-.08,0a.45.45,0,0,0-.08.09l-.22.29a.09.09,0,0,0,0,.11l.15.25.25.41m2.46-.06h0l0,0,.36-.61a.07.07,0,0,0,0-.06l-.32-.42s-.06,0-.08,0a.17.17,0,0,0,0,.06c0,.22,0,.44,0,.66s0,.25,0,.37M9.8,5.74a.31.31,0,0,0-.07-.06l-.58-.22s-.06,0-.07,0A2.54,2.54,0,0,1,9,5.79c0,.06-.06.12-.09.18a.36.36,0,0,0,0,.33,2.55,2.55,0,0,1,.24-.37.77.77,0,0,1,.39-.23l0,.17.29-.11m1.15-.31a2.47,2.47,0,0,0-.72.32l.3.1,0-.16a.88.88,0,0,1,.61.58.17.17,0,0,0,0-.09,2.18,2.18,0,0,0-.07-.34.88.88,0,0,1-.11-.41M8,6.11c0,.07,0,.12,0,.18a.05.05,0,0,0,0,0l.22.06s.07,0,.1,0a.06.06,0,0,0,0-.05A.76.76,0,0,0,8,6.11m3.58.23a.35.35,0,0,0,.12,0l.18,0s0,0,0,0,0-.11,0-.18a.54.54,0,0,0-.35.23M10.16,5.8h0a.21.21,0,0,0,0,.06,1.43,1.43,0,0,0,0,.14c0,.1,0,.11.12.1l-.09-.3m-.26,0h0l-.1.32s.11,0,.11-.07a1.76,1.76,0,0,0,0-.25"/></svg>