<?xml version="1.0" encoding="utf-8"?>
<!-- Generator: Adobe Illustrator 21.0.0, SVG Export Plug-In . SVG Version: 6.00 Build 0)  -->
<svg version="1.1" id="Layer_1" xmlns="http://www.w3.org/2000/svg" xmlns:xlink="http://www.w3.org/1999/xlink" x="0px" y="0px"
	 viewBox="0 0 20 20" style="enable-background:new 0 0 20 20;" xml:space="preserve">
<style type="text/css">
	.st0{fill:#F9A540;}
</style>
<path class="st0" d="M11,4.4c-0.3-0.1-0.6-0.2-1-0.2c-0.3,0-0.6,0-0.9,0.1c-2,0.9-3.5,4.6-3.6,6.8h0c0,0,0,0,0,0c0,0,0,0,0,0
	c0.1,2.9,2.1,4.6,4.5,4.6c2.4,0,4.3-1.6,4.5-4.6c0-0.1,0-0.2,0-0.2C14.3,8.8,12.9,5.3,11,4.4 M7.3,11.1c-0.3,0-0.5-0.2-0.5-0.5
	C6.8,10.2,7,10,7.3,10c0.3,0,0.5,0.2,0.5,0.5C7.9,10.8,7.6,11.1,7.3,11.1 M9.4,6.6c0,0-1.1,1.1-1.4,2.6c0,0.3-0.3,0.4-0.5,0.4
	c0,0-0.1,0-0.1,0C7.1,9.5,6.9,9.2,7,8.9c0.4-1.8,1.7-3.1,1.7-3.1c0.2-0.2,0.6-0.2,0.8,0C9.7,6,9.7,6.4,9.4,6.6"/>
<path class="st0" d="M20,10c0-5.5-4.5-10-10-10C4.5,0,0,4.5,0,10c0,5.5,4.5,10,10,10C15.5,20,20,15.5,20,10 M18.1,10
	c0,4.5-3.7,8.1-8.1,8.1c-4.5,0-8.1-3.6-8.1-8.1c0-4.5,3.7-8.1,8.1-8.1C14.5,1.9,18.1,5.5,18.1,10"/>
</svg>
