<svg id="Layer_1" data-name="Layer 1" xmlns="http://www.w3.org/2000/svg" viewBox="0 0 20 20"><defs><style>.cls-1{fill:#fde482;}</style></defs><title>gluten</title><path class="cls-1" d="M12.62,10.51c-3.3.64-2.24,3.45-2.24,3.45,3.23-1,2.24-3.45,2.24-3.45m-.19-2.57c-3.06.59-2.07,3.2-2.07,3.2,3-1,2.07-3.2,2.07-3.2m-1-.29h.43V5.37h-.43ZM10.08,5.31A2.32,2.32,0,0,0,10,9.1s2-1.34.09-3.79m-.31-.38h.43V3.13H9.78ZM8.12,7.64h.42V5.36H8.12Zm-.54.28s-.94,2.23,2.06,3.2c0,0,1-2.6-2.06-3.2m-.2,2.57S6.37,12.9,9.6,14c0,0,1.08-2.8-2.22-3.46m-.05,2.86s-1,2.44,2.26,3.52c0,0,1.09-2.85-2.26-3.52m3.06,3.52c3.3-1.06,2.28-3.51,2.28-3.51-3.36.65-2.28,3.51-2.28,3.51" transform="translate(0 0)"/><path class="cls-1" d="M20,10A10,10,0,1,0,10,20,10,10,0,0,0,20,10m-1.87,0A8.12,8.12,0,1,1,10,1.88,8.13,8.13,0,0,1,18.13,10" transform="translate(0 0)"/></svg>