<svg id="Layer_1" data-name="Layer 1" xmlns="http://www.w3.org/2000/svg" viewBox="0 0 20 20"><defs><style>.cls-1{fill:#f3ea35;}</style></defs><title>hardal</title><path class="cls-1" d="M20,10A10,10,0,1,0,10,20,10,10,0,0,0,20,10m-1.88,0A8.12,8.12,0,1,1,10,1.88,8.12,8.12,0,0,1,18.12,10"/><path class="cls-1" d="M12.69,15.61l-.26-7.43a.61.61,0,0,0-.57-.59v-1a.55.55,0,0,0-.16-.39.53.53,0,0,0-.4-.16h-.78l-.1-2.53h-.8L9.5,6H8.78a.61.61,0,0,0-.62.6v1a.6.6,0,0,0-.57.58L7.29,15.6a.56.56,0,0,0,.58.59h4.24a.56.56,0,0,0,.58-.59m-4.54-7h0a.13.13,0,0,1,.13.13l-.22,6c0,.54-.19.54-.19.54H7.8a.06.06,0,0,1-.06-.06l.23-6c0-.55.19-.54.19-.54m3.44-2v1h-.37v-1h-.28v1h-.26v-1H10.4v1h-.26v-1H9.87v1H9.61v-1H9.33v1H9.07v-1H8.8v1H8.43v-1a.34.34,0,0,1,.34-.34h1l.12-2.52h.29l.1,2.52h1a.32.32,0,0,1,.2.08.29.29,0,0,1,.08.2"/></svg>