<svg id="Layer_1" data-name="Layer 1" xmlns="http://www.w3.org/2000/svg" viewBox="0 0 20 20"><defs><style>.cls-1{fill:#6bc4ea;}</style></defs><title>milk</title><path class="cls-1" d="M12.53,8.55h0l-1-3.25a.51.51,0,0,0,0-.11A.63.63,0,0,0,11.29,4H8.74a.64.64,0,0,0-.64.63.63.63,0,0,0,.4.59.51.51,0,0,0,0,.11l-1,3.25h0a6.62,6.62,0,0,0-.16,1.92c0,.06,0,.12,0,.18v3.58a1.85,1.85,0,0,0,1.86,1.83h1.63a1.85,1.85,0,0,0,1.87-1.82V10.48a7.12,7.12,0,0,0-.15-1.93m-.28,2v3.72a1.42,1.42,0,0,1-1.43,1.4H9.17a1.42,1.42,0,0,1-1.43-1.41V10.63a7.22,7.22,0,0,1,.09-1.71A4,4,0,0,1,10,9.65a2.7,2.7,0,0,0,2.24.2c0,.24,0,.47,0,.67" transform="translate(0 0)"/><path class="cls-1" d="M20,10A10,10,0,1,0,10,20,10,10,0,0,0,20,10m-1.88,0A8.12,8.12,0,1,1,10,1.88,8.12,8.12,0,0,1,18.12,10" transform="translate(0 0)"/></svg>