<?xml version="1.0" encoding="utf-8"?>
<!-- Generator: Adobe Illustrator 28.0.0, SVG Export Plug-In . SVG Version: 6.00 Build 0)  -->
<svg version="1.1" id="Layer_1" xmlns="http://www.w3.org/2000/svg" xmlns:xlink="http://www.w3.org/1999/xlink" x="0px" y="0px"
	 viewBox="0 0 256 256" style="enable-background:new 0 0 256 256;" xml:space="preserve">
<style type="text/css">
	.st0{opacity:0.25;}
	.st1{fill:#1877F2;}
	.st2{fill:#FFFFFF;}
</style>
<g class="st0">
	<path class="st1" d="M240,128c0,61.9-50.1,112-112,112S16,189.9,16,128S66.1,16,128,16S240,66.1,240,128z"/>
</g>
<g>
	<path class="st1" d="M128,0C57.3,0,0,57.3,0,128s57.3,128,128,128s128-57.3,128-128S198.7,0,128,0z M128,240
		c-61.9,0-112-50.1-112-112S66.1,16,128,16s112,50.1,112,112S189.9,240,128,240z"/>
</g>
<g>
	<path class="st2" d="M114.5,192c0-0.5-0.1-1.1-0.1-1.6c0-18.3,0-36.7,0-55c0-0.5,0-1.1,0-1.8c-6.6,0-13.1,0-19.6,0
		c0-7.6,0-15.1,0-22.8c6.5,0,13,0,19.6,0c0-0.6,0-1.1,0-1.6c0-6-0.1-11.9,0.1-17.9c0.3-7.2,2.4-13.7,7.5-19.1
		c3.8-4.1,8.7-6.4,14.1-7.5c4.4-0.9,8.9-0.8,13.3-0.7c3.6,0.1,7.2,0.5,10.8,0.7c0.3,0,0.6,0.1,0.9,0.2c0,6.7,0,13.4,0,20.3
		c-0.4,0-0.9,0-1.3,0c-4.5,0.1-8.9,0-13.4,0.2c-5.3,0.3-8.2,3.2-8.4,8.5c-0.2,5.5-0.1,11-0.1,16.5c0,0.1,0.1,0.1,0.1,0.4
		c7.3,0,14.7,0,22.3,0c-1,7.7-1.9,15.1-2.9,22.8c-6.5,0-12.9,0-19.5,0c0,0.5-0.1,0.8-0.1,1.2c0,18.8,0,37.6,0,56.4
		c0,0.3,0,0.6,0.1,0.9C130.2,192,122.3,192,114.5,192z"/>
</g>
</svg>
