<?xml version="1.0" encoding="utf-8"?>
<!-- Generator: Adobe Illustrator 28.0.0, SVG Export Plug-In . SVG Version: 6.00 Build 0)  -->
<svg version="1.1" id="Layer_1" xmlns="http://www.w3.org/2000/svg" xmlns:xlink="http://www.w3.org/1999/xlink" x="0px" y="0px"
	 viewBox="0 0 256 256" style="enable-background:new 0 0 256 256;" xml:space="preserve">
<style type="text/css">
	.st0{opacity:0.25;}
	.st1{fill:url(#SVGID_1_);}
	.st2{fill:url(#SVGID_00000160179304727403016090000006892266983802180485_);}
	.st3{fill:#FFFFFF;}
</style>
<g class="st0">
	<linearGradient id="SVGID_1_" gradientUnits="userSpaceOnUse" x1="48.804" y1="207.196" x2="207.196" y2="48.804">
		<stop  offset="0" style="stop-color:#FEDA75"/>
		<stop  offset="0.25" style="stop-color:#FA7E1E"/>
		<stop  offset="0.5" style="stop-color:#D62976"/>
		<stop  offset="0.75" style="stop-color:#962FBF"/>
		<stop  offset="1" style="stop-color:#4F5BD5"/>
	</linearGradient>
	<path class="st1" d="M240,128c0,61.9-50.1,112-112,112S16,189.9,16,128S66.1,16,128,16S240,66.1,240,128z"/>
</g>
<g>
	
		<linearGradient id="SVGID_00000073691040114282460490000000209427682356452006_" gradientUnits="userSpaceOnUse" x1="37.4903" y1="218.5097" x2="218.5097" y2="37.4903">
		<stop  offset="0" style="stop-color:#FEDA75"/>
		<stop  offset="0.25" style="stop-color:#FA7E1E"/>
		<stop  offset="0.5" style="stop-color:#D62976"/>
		<stop  offset="0.75" style="stop-color:#962FBF"/>
		<stop  offset="1" style="stop-color:#4F5BD5"/>
	</linearGradient>
	<path style="fill:url(#SVGID_00000073691040114282460490000000209427682356452006_);" d="M128,0C57.3,0,0,57.3,0,128
		s57.3,128,128,128s128-57.3,128-128S198.7,0,128,0z M128,240c-61.9,0-112-50.1-112-112S66.1,16,128,16s112,50.1,112,112
		S189.9,240,128,240z"/>
</g>
<g>
	<path class="st3" d="M128,75.5c17.1,0,19.1,0.1,25.9,0.4c17.3,0.8,25.4,9,26.2,26.2c0.3,6.7,0.4,8.8,0.4,25.9
		c0,17.1-0.1,19.1-0.4,25.9c-0.8,17.2-8.9,25.4-26.2,26.2c-6.8,0.3-8.8,0.4-25.9,0.4c-17.1,0-19.1-0.1-25.9-0.4
		c-17.4-0.8-25.4-9.1-26.2-26.2c-0.3-6.7-0.4-8.8-0.4-25.9c0-17.1,0.1-19.1,0.4-25.9c0.8-17.2,8.9-25.4,26.2-26.2
		C108.9,75.6,110.9,75.5,128,75.5z M128,64c-17.4,0-19.6,0.1-26.4,0.4c-23.2,1.1-36.2,14-37.2,37.2c-0.3,6.8-0.4,9-0.4,26.4
		s0.1,19.6,0.4,26.4c1.1,23.2,14,36.2,37.2,37.2c6.8,0.3,9,0.4,26.4,0.4s19.6-0.1,26.4-0.4c23.2-1.1,36.2-14,37.2-37.2
		c0.3-6.8,0.4-9,0.4-26.4s-0.1-19.6-0.4-26.4c-1-23.2-14-36.2-37.2-37.2C147.6,64.1,145.4,64,128,64z M128,95.1
		c-18.1,0-32.9,14.7-32.9,32.9s14.7,32.9,32.9,32.9s32.9-14.7,32.9-32.9C160.9,109.9,146.1,95.1,128,95.1z M128,149.3
		c-11.8,0-21.3-9.5-21.3-21.3c0-11.8,9.6-21.3,21.3-21.3s21.3,9.6,21.3,21.3C149.3,139.8,139.8,149.3,128,149.3z M162.2,86.2
		c-4.2,0-7.7,3.4-7.7,7.7c0,4.2,3.4,7.7,7.7,7.7c4.2,0,7.7-3.4,7.7-7.7C169.8,89.6,166.4,86.2,162.2,86.2z"/>
</g>
</svg>
