<?xml version="1.0" encoding="utf-8"?>
<!-- Generator: Adobe Illustrator 28.0.0, SVG Export Plug-In . SVG Version: 6.00 Build 0)  -->
<svg version="1.1" id="Layer_1" xmlns="http://www.w3.org/2000/svg" xmlns:xlink="http://www.w3.org/1999/xlink" x="0px" y="0px"
	 viewBox="0 0 256 256" style="enable-background:new 0 0 256 256;" xml:space="preserve">
<style type="text/css">
	.st0{opacity:0.25;}
	.st1{fill:#FFFFFF;}
</style>
<g class="st0">
	<path d="M240,128c0,61.9-50.1,112-112,112S16,189.9,16,128S66.1,16,128,16S240,66.1,240,128z"/>
</g>
<g>
	<path class="st1" d="M128,0C57.3,0,0,57.3,0,128s57.3,128,128,128s128-57.3,128-128S198.7,0,128,0z M128,240
		c-61.9,0-112-50.1-112-112S66.1,16,128,16s112,50.1,112,112S189.9,240,128,240z"/>
</g>
<g>
	<path class="st1" d="M177.3,94c-13.1-2.8-22.9-13.8-24.1-27.2V64h-22.1v87.4c0,10.2-8.3,18.5-18.5,18.5c-5.7,0-11.1-2.7-14.6-7.3
		l0,0l0,0c-6.2-8.1-4.6-19.8,3.5-25.9c4.8-3.6,11-4.7,16.7-2.9v-22.3c-22.1-3.1-42.6,12.4-45.6,34.5c-1.7,12.4,2.4,24.9,11.1,33.8
		c15.6,16,41.2,16.3,57.2,0.7c7.8-7.6,12.2-18,12.2-28.9v-44.8c8.9,6.4,19.6,9.8,30.5,9.8v-22C181.6,94.6,179.4,94.4,177.3,94z"/>
</g>
</svg>
