<?xml version="1.0" encoding="utf-8"?>
<!-- Generator: Adobe Illustrator 28.0.0, SVG Export Plug-In . SVG Version: 6.00 Build 0)  -->
<svg version="1.1" id="Layer_1" xmlns="http://www.w3.org/2000/svg" xmlns:xlink="http://www.w3.org/1999/xlink" x="0px" y="0px"
	 viewBox="0 0 256 256" style="enable-background:new 0 0 256 256;" xml:space="preserve">
<style type="text/css">
	.st0{opacity:0.25;}
	.st1{fill:#FF0000;}
	.st2{fill:#FFFFFF;}
</style>
<g class="st0">
	<path class="st1" d="M240,128c0,61.9-50.1,112-112,112S16,189.9,16,128S66.1,16,128,16S240,66.1,240,128z"/>
</g>
<g>
	<path class="st1" d="M128,0C57.3,0,0,57.3,0,128s57.3,128,128,128s128-57.3,128-128S198.7,0,128,0z M128,240
		c-61.9,0-112-50.1-112-112S66.1,16,128,16s112,50.1,112,112S189.9,240,128,240z"/>
</g>
<g>
	<path class="st2" d="M188.4,96.8c-1.2-6.5-6.8-11.3-13.4-12.8c-9.8-2.1-27.9-3.6-47.5-3.6c-19.6,0-38,1.5-47.8,3.6
		c-6.5,1.5-12.2,5.9-13.4,12.8c-1.2,7.4-2.4,17.8-2.4,31.2s1.2,23.8,2.7,31.2c1.2,6.5,6.8,11.3,13.4,12.8
		c10.4,2.1,28.2,3.6,47.8,3.6s37.4-1.5,47.8-3.6c6.5-1.5,12.2-5.9,13.4-12.8c1.2-7.4,2.7-18.1,3-31.2
		C191.4,114.6,189.9,104.2,188.4,96.8z M111.5,148.8v-41.6l36.2,20.8L111.5,148.8z"/>
</g>
</svg>
