<?xml version="1.0" encoding="utf-8"?>
<!-- Generator: Adobe Illustrator 21.0.0, SVG Export Plug-In . SVG Version: 6.00 Build 0)  -->
<svg version="1.1" xmlns="http://www.w3.org/2000/svg" xmlns:xlink="http://www.w3.org/1999/xlink" x="0px" y="0px"
	 viewBox="0 0 245.2 71.1" style="enable-background:new 0 0 245.2 71.1;" xml:space="preserve">
<style type="text/css">
	.st0{fill-rule:evenodd;clip-rule:evenodd;fill:#FFFFFF;}
	.st1{fill-rule:evenodd;clip-rule:evenodd;fill:#EC008C;}
</style>
<g id="Layer_2">
</g>
<g id="Layer_1">
	<path class="st0" d="M130.3,45.3h-6.9l0.3-3.9c-1.6,1.9-3,3.2-4.5,3.9c-1.4,0.7-3.3,1.1-5.5,1.1c-6.1,0-9.1-3-9.1-8.9
		c0-1.5,0.2-3.3,0.6-5.2l3.8-18.2C111,4.7,116.6,0,125.6,0c7.7,0,11.6,3,11.6,9c0,1.2-0.2,2.5-0.5,3.8l-0.7,3.3h-10.2l0.5-2.4
		c0.3-1.4,0.5-2.4,0.5-3.2c0-1.6-0.8-2.5-2.4-2.5c-2.6,0-4.3,1.5-4.9,4.6L115,34.5c-0.1,0.5-0.2,0.9-0.2,1.3c0,1.8,1,2.7,3.1,2.7
		c1.5,0,2.7-0.6,3.5-1.8c0.5-0.7,0.9-2,1.3-3.9l0.8-3.5h-3.6l1.7-8h13.8L130.3,45.3z M177.5,45.3h-9.7l9.3-44.3h14.3l-0.2,26.2
		l11-26.2h14.3l-9.2,44.3h-9.7l8.3-34.7l-14.5,34.7h-7.6l0.2-34.7L177.5,45.3z M236.7,45.3h-24l9.2-44.3h23.3l-1.8,8.9h-13.1
		l-1.7,8.2h12.7l-1.9,8.9h-12.7l-2,9.6h13.8L236.7,45.3z M155.2,28.9l1.3-19.8l-7.2,19.8H155.2z M143.6,45.3h-10.2L152,1.1h12.3
		l0.2,44.3h-10.3l0.3-8.6h-8L143.6,45.3z M60.1,45.3l8.8-42.1h22.3L90,8.9H74.3l-2.4,11.7h14.8l-1.2,5.7H70.7l-2.8,13.4H84l-1.2,5.7
		H60.1z M32.2,45.3h-3.8l8.8-42.2H41l-3.8,18.1h16.8l3.8-18.1h3.8l-8.8,42.2H49l4.2-20.6H36.4L32.2,45.3z M8.4,45.3H7.2H6.6
		l8.3-39.9H0l0.5-2.2h31.7l-0.5,2.2H17.4L9.1,45.3H8.4z"/>
	<path class="st1" d="M224.5,68l0.2-1c-0.6,0.8-1.2,1.2-2.1,1.2c-1.1,0-1.7-0.6-1.7-1.9c0-0.4,0.1-0.8,0.2-1.2l0.7-3.4
		c0.3-1.2,0.6-2.1,1.1-2.6c0.4-0.5,1-0.7,1.8-0.7c0.9,0,1.4,0.4,1.6,1.2c0-0.2,0.1-0.5,0.1-0.8l0.7-3.2h2.1L226.6,68H224.5z
		 M225.1,64.9l0.6-2.8c0.1-0.5,0.2-0.9,0.2-1.2c0-0.6-0.2-0.9-0.7-0.9c-0.4,0-0.8,0.2-1,0.5c-0.1,0.2-0.2,0.6-0.4,1.3l-0.6,3.1
		c-0.1,0.3-0.1,0.5-0.1,0.7c0,0.6,0.2,0.9,0.7,0.9C224.4,66.6,224.9,66,225.1,64.9 M219.6,57.5h-2.1l0.4-2h2.1L219.6,57.5z
		 M192.6,69h2.1c-0.1,0.4,0.2,0.5,0.8,0.5c0.7,0,1.2-0.5,1.4-1.4l0.2-1.1c-0.6,0.8-1.3,1.2-2.2,1.2c-1.1,0-1.7-0.6-1.7-1.9
		c0-0.4,0-0.8,0.1-1.2l0.7-3.4c0.2-1.2,0.6-2.1,1.1-2.6c0.4-0.5,1-0.7,1.7-0.7c0.9,0,1.5,0.4,1.6,1.2l0.2-1h2.1l-1.9,9
		c-0.2,1.1-0.6,1.9-1.1,2.4c-0.7,0.7-1.7,1-3,1c-1.5,0-2.3-0.6-2.3-1.7C192.5,69.3,192.5,69.2,192.6,69 M197.9,62.1
		c0.1-0.5,0.2-0.9,0.2-1.2c0-0.6-0.2-0.9-0.7-0.9c-0.4,0-0.8,0.2-1,0.5c-0.1,0.2-0.2,0.6-0.4,1.3l-0.7,3.1c-0.1,0.3-0.1,0.5-0.1,0.7
		c0,0.6,0.2,0.9,0.7,0.9c0.7,0,1.1-0.6,1.4-1.7L197.9,62.1z M217.4,68h-2.1l1.9-9.3h2.1L217.4,68z M208.8,68h-2.1l2.6-12.4h2.1
		l-1.2,5.6c0,0.2-0.1,0.6-0.3,1.2l2.8-3.7h2.3l-3.1,3.8L213,68h-2.4l-0.5-3.8l-0.8,1L208.8,68z M178.3,68l2.6-12.4h2.1l-0.6,3
		c0,0.1-0.1,0.4-0.3,1c0.6-0.8,1.3-1.2,2.2-1.2c1.1,0,1.7,0.6,1.7,1.8c0,0.4-0.1,0.9-0.2,1.5l-0.7,3.4c-0.5,2.1-1.4,3.2-2.8,3.1
		c-0.9,0-1.4-0.4-1.7-1.2l-0.2,1H178.3z M181.6,62.1l-0.6,2.8c-0.1,0.3-0.1,0.5-0.1,0.7c0,0.6,0.3,0.9,0.8,0.9c0.6,0,1-0.5,1.3-1.6
		l0.7-3.1c0.1-0.5,0.2-0.9,0.2-1.1c0-0.5-0.2-0.7-0.7-0.7C182.4,60.1,181.9,60.8,181.6,62.1 M191.8,57.5h-2.1l0.4-2h2.1L191.8,57.5z
		 M160.8,68.2c-0.9,0-1.6-0.2-2-0.5c-0.4-0.3-0.6-0.9-0.6-1.6c0-0.6,0.1-1.4,0.3-2.5c0.4-1.9,0.8-3.2,1.2-3.8c0.6-1,1.7-1.4,3.1-1.4
		c0.9,0,1.6,0.2,2,0.6c0.4,0.3,0.6,0.9,0.6,1.6c0,0.6-0.2,1.6-0.5,3.1c-0.3,1.7-0.8,2.9-1.3,3.5C163.1,67.9,162.1,68.2,160.8,68.2
		 M161,61.8l-0.7,3.1c-0.1,0.4-0.1,0.7-0.1,0.9c0,0.5,0.3,0.7,0.9,0.7c0.5,0,0.8-0.1,1-0.4c0.2-0.2,0.3-0.6,0.4-1.2l0.6-3.1
		c0.1-0.5,0.1-0.8,0.1-1c0-0.5-0.3-0.8-0.8-0.8c-0.5,0-0.9,0.2-1.1,0.6C161.3,60.9,161.1,61.3,161,61.8 M189.6,68h-2.1l1.9-9.3h2.1
		L189.6,68z M170.8,58.7l-0.3,1.7c0.4-0.6,0.8-1,1.2-1.3c0.4-0.3,0.9-0.5,1.4-0.5l-0.5,2.6l-0.4,0c-1.1,0-1.8,0.5-2,1.6l-1.1,5.4
		h-2.1l1.9-9.3H170.8z M154.1,60.2h-0.8l0.3-1.6h0.8l0.2-0.9c0.2-0.8,0.5-1.4,0.9-1.7c0.4-0.3,1-0.4,1.8-0.4h0.8l-0.4,1.7
		c-0.2-0.1-0.3-0.1-0.4-0.1c-0.3,0-0.5,0.1-0.5,0.4l-0.2,1.1h0.9l-0.3,1.6h-0.9l-1.6,7.8h-2.1L154.1,60.2z M229.8,64.9h2.1
		c-0.1,0.4-0.2,0.8-0.2,1c0,0.3,0.1,0.5,0.3,0.6c0.1,0,0.3,0.1,0.5,0.1c0.3,0,0.6-0.1,0.8-0.3c0.2-0.2,0.3-0.5,0.3-0.7
		c0-0.2-0.1-0.5-0.2-0.7c0,0-0.2-0.2-0.5-0.5l-1-0.8c-0.8-0.7-1.2-1.4-1.2-2.3c0-0.2,0-0.5,0.1-0.7c0.2-0.7,0.5-1.3,1.2-1.7
		c0.6-0.4,1.4-0.6,2.4-0.6c1.6,0,2.4,0.7,2.4,2c0,0.3-0.1,0.7-0.1,1.1h-2.1c0.1-0.3,0.1-0.5,0.1-0.7c0-0.5-0.3-0.7-0.8-0.7
		c-0.6,0-0.9,0.3-1.1,0.8c0,0.5,0.2,0.7,0.6,1.1l1.5,1.2c0.3,0.2,0.5,0.4,0.7,0.8c0.2,0.4,0.4,0.7,0.3,1c-0.2,2.2-1.5,3.3-3.8,3.3
		c-0.6,0-1.2-0.1-1.6-0.4c-0.6-0.4-0.9-0.9-0.9-1.7C229.6,65.8,229.6,65.4,229.8,64.9"/>
</g>
</svg>
