<svg fill="#f5a6ba" xmlns="http://www.w3.org/2000/svg" viewBox="0 0 20 20">
	<path
		d="M20,10A10,10,0,1,0,10,20,10,10,0,0,0,20,10m-1.88,0A8.12,8.12,0,1,1,10,1.88,8.12,8.12,0,0,1,18.12,10"
		transform="translate(0)" />
	<path
		d="M16.71,9.22h0a3.34,3.34,0,0,0-.78.39,2.26,2.26,0,0,1-.92.24,1.67,1.67,0,0,1,.11.58,1.13,1.13,0,0,1-.1.6h0l.38,0a3.63,3.63,0,0,1,1.3.24h0a.12.12,0,0,0,.11-.18,1.39,1.39,0,0,0-.79-.68,2.63,2.63,0,0,0,.82-.94.17.17,0,0,0-.15-.24M14.8,11a.85.85,0,0,0,.14-.61,1.35,1.35,0,0,0-.12-.58,8.35,8.35,0,0,1-2.3-.52,13.71,13.71,0,0,0-3.94-.59A13.29,13.29,0,0,0,6.22,9a2.92,2.92,0,0,1,.06,2.81l.89.1C8.09,12,9,12,9.95,12a9.55,9.55,0,0,0,2.71-.34,18.59,18.59,0,0,1,2.14-.65h0M11.24,8.38a.18.18,0,0,0,0-.17c0-.05-.11-.05-.17-.05A8.33,8.33,0,0,1,9.27,8,.17.17,0,0,0,9,8.12a1.41,1.41,0,0,1-.36.56A13.75,13.75,0,0,1,11,8.9a.17.17,0,0,0,0-.07l.19-.46M6.08,9a12.3,12.3,0,0,0-2.62.8.76.76,0,0,0-.18.11c-.38.33,0,.81.34,1a6.08,6.08,0,0,0,2.51.81A2.79,2.79,0,0,0,6.08,9M5,10a.23.23,0,0,1-.27,0,.23.23,0,0,1-.1-.25.24.24,0,0,1,.34-.11L5,9.76A.22.22,0,0,1,5,10m8.48,1.48-.53.18a.64.64,0,0,0,.09.13.32.32,0,0,0,.26.11l.12,0a2,2,0,0,0,.74-.31s0,0,0,0l-.28-.12,0,0h0l-.37.13"
		transform="translate(0)" />
</svg>