<svg fill="#f1c296" xmlns="http://www.w3.org/2000/svg" viewBox="0 0 20 20">
	<path
		d="M20,10A10,10,0,1,0,10,20,10,10,0,0,0,20,10m-1.88,0A8.12,8.12,0,1,1,10,1.88,8.12,8.12,0,0,1,18.12,10"
		transform="translate(0 0)" />
	<path
		d="M11.68,10c0-.83,1.11-1.63,1.12-2.85A3.07,3.07,0,0,0,10,3.86a3.07,3.07,0,0,0-2.8,3.28c0,1.22,1.11,2.17,1.11,2.85S7.2,11.63,7.2,12.85A3.07,3.07,0,0,0,10,16.14a3.07,3.07,0,0,0,2.8-3.28c0-1.22-1.1-2-1.1-2.85m-1,2.68a.34.34,0,0,1,.35-.33.33.33,0,1,1,0,.65.34.34,0,0,1-.34-.33m-.35,1.09a.33.33,0,1,1,.35-.32.34.34,0,0,1-.35.32m-.21.43a.33.33,0,1,1-.35.32.34.34,0,0,1,.35-.32m.55-7.47a.35.35,0,0,1-.7,0,.35.35,0,0,1,.7,0m0,4.19a.32.32,0,1,1-.35.32.34.34,0,0,1,.35-.32m.94-4.59a.35.35,0,0,1-.7,0,.35.35,0,0,1,.7,0m0,1.52a.34.34,0,0,1-.35.32.33.33,0,1,1,.35-.32m0,5.45a.33.33,0,1,1,0,.65.33.33,0,1,1,0-.65"
		transform="translate(0 0)" />
</svg>