<svg fill="#9d7062" xmlns="http://www.w3.org/2000/svg" viewBox="0 0 20 20">
	<path
		d="M14.79,10.9c0-1.27-1.08-3.26-1.4-3.26S12,9.63,12,10.89a1.59,1.59,0,0,0,1.41,1.66,1.59,1.59,0,0,0,1.42-1.65m-3.45-5a1.74,1.74,0,0,0-2.2-.8,1.65,1.65,0,0,0-.64,1.68.65.65,0,0,1,.36-.15H8.9c.4.07.71,1.1.8,1.42s.09.34.12.52c.83.69,1.79,1.2,2,1.09s.23-2.58-.46-3.76M6.88,9.71A1.57,1.57,0,0,0,8,11.55a1.6,1.6,0,0,0,1.7-1.35c.2-1.1-.42-3.21-.86-3.28s-1.76,1.69-2,2.79m-.22.14c-.29-.33-.54-.54-.66-.52-.32.06-1,2.27-.74,3.55A1.63,1.63,0,0,0,7,14.29,1.61,1.61,0,0,0,8,12.36a3,3,0,0,0-.18-.58A1.79,1.79,0,0,1,6.66,9.85m2.48,3.37A1.59,1.59,0,0,0,10.39,15a1.61,1.61,0,0,0,1.56-1.53c.12-1.27-.78-3.35-1.11-3.38S9.25,12,9.14,13.22"
		transform="translate(0 0)" />
	<path
		d="M20,10A10,10,0,1,0,10,20,10,10,0,0,0,20,10m-1.88,0A8.12,8.12,0,1,1,10,1.88,8.12,8.12,0,0,1,18.12,10"
		transform="translate(0 0)" />
</svg>