<svg fill="#e1c5a7" xmlns="http://www.w3.org/2000/svg" viewBox="0 0 20 20">
	<path
		d="M15,10.33c0-3.42-.47-6.2-5-6.21S5,6.89,5,10.31s5,6.21,5,6.21,5-2.76,5-6.19m-4.86-.15c-.25-.16-.56-.86-.83-.64s-.07.45-.15.64-.31.37-.06.55.28.26.47.42a.49.49,0,0,0-.08.46l0,.09c-.48.26-1.5.75-1.75.28a.55.55,0,0,0,.14.28c-.11.31-.36,1.11.25.94,0,0-.13-.19.17-.37a.34.34,0,0,0,.12-.45,3,3,0,0,0,1.1-.63c.13.26.35.75.16,1,0,0-.25,1.89-1.88,1,0,0-1,.33-1-1.19a1,1,0,0,1-.5-.49c-.1-.33-.44-.92,0-1.27a.29.29,0,0,0,.09-.35,3.2,3.2,0,0,0,.52.27s.46-.23.17-.27,0-.15.21-.23c-.27,0-.76-.12-1,0h0a.65.65,0,0,1,.2-.8.55.55,0,0,0,.18-.27l.05.06A2,2,0,0,1,7.65,7s-.23-.1-.19-.29c0,0-.25.29-.42.27,0,0,.21.1,0,.28a2,2,0,0,0-.48,1.65c-.25-.21-.78-.39-.74-1,.07-.94.36-1.11.65-1.17s-.16-.74.71-1,1.63-.59,1.75.53.1,1.31.48.47.21-.7.38-.85,0-.26.33-.26.18.57.37.8.5,1,.61.66-.4-1.37.41-1.48,1.13-.51,1.75.5,1,1.19.83,2-.29,1-.73,1.06-.13.35.13.54a.65.65,0,0,1,.25.86c-.19.35.67,1.21-.73,2.13l0-.08s-.21,1.35-1.19,1.14a.75.75,0,0,1-1-.29,2.16,2.16,0,0,1-.11-.23c.9.73,1.6-.83,1.6-.83-1.06.45-1.51.36-1.71.24a.26.26,0,0,1,0-.08.86.86,0,0,1-.29-.53c.47,0,1.71-.09,1.83-1a1.25,1.25,0,0,1-1.75.53l-.08.15h0a4.57,4.57,0,0,0,0-.57M13.2,7.4c.09-.37-.25-.72-.37-.55a.63.63,0,0,0,0,.78A2.47,2.47,0,0,1,13,8.77c.23-.16.1-1,.19-1.37m-.63,2.13s-.86-.35-1-1a4,4,0,0,1-.41-.7.58.58,0,0,1-.07.39,3.69,3.69,0,0,0-.34.94s.44-.35.59.13a1.89,1.89,0,0,0,.31.68c.19.32.29.16.42.55a1.3,1.3,0,0,0,.46.8c.25.17.46,0,.29-.14s-.44-.12-.33-.41.86-.1.9-.32c0,0-1.31,0-.79-.86M11,7.35a1.17,1.17,0,0,0,.1.42,1.76,1.76,0,0,0-.1-.42m1.17,0c-.39-.47-1.08-.62-1-.35a5.66,5.66,0,0,0,.33.74c0-.57.67-.38.67-.38M9.5,7.82s-.17,1.35-.78,1,0-.78,0-.78l-.61.28s-.09,1-.5.92c0,0,0,.43-.21.43,0,0,.48.31.27.58s.06.82.06.82a1,1,0,0,1,.23-1c.36-.27.29-.37.44-.68s.67-.16.9-.37.21-1.29.21-1.29M7.11,13.08l0,.1s.63-.43.42-.82-.44.35-.44.72m.36-2.89-.18.08c.1,0,.17,0,.18-.08"
		transform="translate(0 0)" />
	<path
		d="M20,10A10,10,0,1,0,10,20,10,10,0,0,0,20,10m-1.88,0A8.12,8.12,0,1,1,10,1.88,8.12,8.12,0,0,1,18.12,10"
		transform="translate(0 0)" />
</svg>